HIERARCHY
ROOT Hips
{
	OFFSET 0.000000 0.000000 0.000000
	CHANNELS 6 Xposition Yposition Zposition Zrotation Yrotation Xrotation 
	JOINT LHipJoint
	{
		OFFSET 0.000000 0.000000 0.000000
		CHANNELS 3 Zrotation Yrotation Xrotation
		JOINT LeftUpLeg
		{
			OFFSET 1.363060 -1.794630 0.839290
			CHANNELS 3 Zrotation Yrotation Xrotation
			JOINT LeftLeg
			{
				OFFSET 2.448110 -6.726130 0.000000
				CHANNELS 3 Zrotation Yrotation Xrotation
				JOINT LeftFoot
				{
					OFFSET 2.562200 -7.039590 0.000000
					CHANNELS 3 Zrotation Yrotation Xrotation
					JOINT LeftToeBase
					{
						OFFSET 0.157640 -0.433110 2.322550
						CHANNELS 3 Zrotation Yrotation Xrotation
						End Site
						{
							OFFSET 0.000000 0.000000 0.000000
						}
					}
				}
			}
		}
	}
	JOINT RHipJoint
	{
		OFFSET 0.000000 0.000000 0.000000
		CHANNELS 3 Zrotation Yrotation Xrotation
		JOINT RightUpLeg
		{
			OFFSET -1.305520 -1.794630 0.839290
			CHANNELS 3 Zrotation Yrotation Xrotation
			JOINT RightLeg
			{
				OFFSET -2.542530 -6.985550 0.000000
				CHANNELS 3 Zrotation Yrotation Xrotation
				JOINT RightFoot
				{
					OFFSET -2.568260 -7.056230 0.000000
					CHANNELS 3 Zrotation Yrotation Xrotation
					JOINT RightToeBase
					{
						OFFSET -0.164730 -0.452590 2.363150
						CHANNELS 3 Zrotation Yrotation Xrotation
						End Site
						{
							OFFSET 0.000000 0.000000 0.000000
						}
					}
				}
			}
		}
	}
	JOINT LowerBack
	{
		OFFSET 0.000000 0.000000 0.000000
		CHANNELS 3 Zrotation Yrotation Xrotation
		JOINT Spine
		{
			OFFSET 0.028270 2.035590 -0.193380
			CHANNELS 3 Zrotation Yrotation Xrotation
			JOINT Spine1
			{
				OFFSET 0.056720 2.048850 -0.042750
				CHANNELS 3 Zrotation Yrotation Xrotation
				JOINT Neck
				{
					OFFSET 0.000000 0.000000 0.000000
					CHANNELS 3 Zrotation Yrotation Xrotation
					JOINT Neck1
					{
						OFFSET -0.054170 1.746240 0.172020
						CHANNELS 3 Zrotation Yrotation Xrotation
						JOINT Head
						{
							OFFSET 0.104070 1.761360 -0.123970
							CHANNELS 3 Zrotation Yrotation Xrotation
							End Site
							{
								OFFSET 0.000000 0.000000 0.000000
							}
						}
					}
				}
				JOINT LeftShoulder
				{
					OFFSET 0.000000 0.000000 0.000000
					CHANNELS 3 Zrotation Yrotation Xrotation
					JOINT LeftArm
					{
						OFFSET 3.362410 1.200890 -0.311210
						CHANNELS 3 Zrotation Yrotation Xrotation
						JOINT LeftForeArm
						{
							OFFSET 4.983000 -0.000000 -0.000000
							CHANNELS 3 Zrotation Yrotation Xrotation
							JOINT LeftHand
							{
								OFFSET 3.483560 -0.000000 -0.000000
								CHANNELS 3 Zrotation Yrotation Xrotation
								JOINT LeftFingerBase
								{
									OFFSET 0.000000 0.000000 0.000000
									CHANNELS 3 Zrotation Yrotation Xrotation
									JOINT LeftHandIndex1
									{
										OFFSET 0.715260 -0.000000 -0.000000
										CHANNELS 3 Zrotation Yrotation Xrotation
										End Site
										{
											OFFSET 0.000000 0.000000 0.000000
										}
									}
								}
								JOINT LThumb
								{
									OFFSET 0.000000 0.000000 0.000000
									CHANNELS 3 Zrotation Yrotation Xrotation
									End Site
									{
										OFFSET 0.000000 0.000000 0.000000
									}
								}
							}
						}
					}
				}
				JOINT RightShoulder
				{
					OFFSET 0.000000 0.000000 0.000000
					CHANNELS 3 Zrotation Yrotation Xrotation
					JOINT RightArm
					{
						OFFSET -3.136600 1.374050 -0.404650
						CHANNELS 3 Zrotation Yrotation Xrotation
						JOINT RightForeArm
						{
							OFFSET -5.241900 -0.000000 -0.000000
							CHANNELS 3 Zrotation Yrotation Xrotation
							JOINT RightHand
							{
								OFFSET -3.444170 -0.000000 -0.000000
								CHANNELS 3 Zrotation Yrotation Xrotation
								JOINT RightFingerBase
								{
									OFFSET 0.000000 0.000000 0.000000
									CHANNELS 3 Zrotation Yrotation Xrotation
									JOINT RightHandIndex1
									{
										OFFSET -0.622530 -0.000000 -0.000000
										CHANNELS 3 Zrotation Yrotation Xrotation
										End Site
										{
											OFFSET 0.000000 0.000000 0.000000
										}
									}
								}
								JOINT RThumb
								{
									OFFSET 0.000000 0.000000 0.000000
									CHANNELS 3 Zrotation Yrotation Xrotation
									End Site
									{
										OFFSET 0.000000 0.000000 0.000000
									}
								}
							}
						}
					}
				}
			}
		}
	}
}
MOTION
Frames: 8
Frame Time: 0.008333
8.522971 19.224672 1.623422 25.226303 -85.109712 -0.455107 -11.459251 2.445877 2.636930 -5.103526 -2.814288 -20.976303 0.490696 0.676147 26.964347 2.408308 8.549667 40.048306 5.290700 -0.000000 -63.256800 10.918866 -2.013936 -1.653051 5.753552 -13.742783 -21.264657 0.370187 -1.929378 29.495433 -1.538965 -5.354530 31.631456 -3.009600 0.000000 -78.632599 0.079954 -0.889705 -0.631084 -0.223470 -0.877903 -3.195698 -3.769117 -0.817561 -1.869568 3.506671 -5.033392 4.707721 -2.712006 -0.343477 3.264416 0.000000 0.000000 0.000000 11.538698 -3.201764 -3.619706 -76.443716 -32.786634 13.120079 179.986033 -76.844265 179.899426 7.972607 -4.511893 -0.373404 -0.090824 0.809523 -0.000000 0.000000 0.000000 0.000000 0.000000 0.000000 0.000000 0.347636 -3.945414 -1.909914 62.413218 40.269882 8.750683 0.134359 88.063945 -0.129805 -13.018887 14.464804 -1.757861 0.102512 -0.721281 -0.000000 0.000000 0.000000 0.000000 0.000000 0.000000 0.000000 
8.327783 19.397933 1.613555 24.961388 -85.388157 -0.055051 -11.454155 2.376228 2.656874 -5.052506 -3.016272 -21.474739 0.505409 0.688736 27.033649 2.368667 8.739677 39.004231 5.344400 -0.000000 -62.247300 10.840845 -1.992601 -1.539876 5.978752 -13.072201 -22.029440 0.405166 -1.970815 29.805263 -1.491239 -5.824105 29.192765 -3.196600 0.000000 -78.031600 0.121699 -0.803982 -0.764898 -0.200336 -0.796175 -3.192039 -3.643415 -0.728374 -1.796214 3.254333 -5.094124 4.845796 -2.754685 -0.347994 3.299943 0.000000 0.000000 0.000000 12.179504 -2.476716 -3.813585 -76.332668 -32.431637 12.401640 179.978984 -72.478617 179.896489 7.827858 -4.891471 -0.395969 -0.090953 0.851585 -0.000000 0.000000 0.000000 0.000000 0.000000 0.000000 0.000000 -0.261221 -4.202758 -2.098164 61.614678 40.362628 7.909807 -179.797408 88.654478 179.858319 -13.713276 14.800282 -1.899297 0.115495 -0.756064 -0.000000 0.000000 0.000000 0.000000 0.000000 0.000000 0.000000 
8.137227 19.559816 1.603772 24.768204 -85.646260 0.281959 -11.444781 2.298909 2.643876 -5.048639 -3.145356 -22.082794 0.507516 0.714443 27.238651 2.311250 8.848857 37.672803 5.311900 0.000000 -61.667600 10.760663 -1.951755 -1.445730 6.195899 -12.447854 -22.841246 0.455071 -2.007643 30.100926 -1.453197 -6.293425 26.642364 -3.346300 0.000001 -77.565800 0.173568 -0.732277 -0.837613 -0.173251 -0.728716 -3.176494 -3.500911 -0.655024 -1.717789 2.969991 -5.128623 4.975255 -2.801473 -0.352605 3.331929 0.000000 0.000000 0.000000 12.868618 -1.754775 -3.994276 -76.196466 -32.062191 11.477457 179.947679 -68.162061 179.891557 7.819408 -5.357929 -0.431252 -0.094263 0.897612 -0.000000 0.000000 0.000000 0.000000 0.000000 0.000000 0.000000 -0.895793 -4.478037 -2.294094 60.836490 40.541576 7.023911 -179.710481 85.517115 179.844508 -14.577568 15.282810 -2.090135 0.132279 -0.793544 -0.000000 0.000000 0.000000 0.000000 0.000000 0.000000 0.000000 
7.950784 19.711140 1.594324 24.554999 -85.875587 0.639747 -11.433353 2.213962 2.600972 -5.081026 -3.191836 -22.767675 0.495923 0.747590 27.499339 2.241346 8.852032 36.225366 5.193900 0.000001 -61.397800 10.679492 -1.893059 -1.378300 6.412174 -11.922463 -23.672934 0.520901 -2.035524 30.316312 -1.429812 -6.743975 24.179051 -3.457600 0.000000 -77.098300 0.241343 -0.675993 -0.844622 -0.140680 -0.677389 -3.147925 -3.342068 -0.599868 -1.630559 2.655913 -5.144993 5.091622 -2.852936 -0.357238 3.359037 0.000000 0.000000 0.000000 13.587765 -1.030738 -4.155335 -76.040330 -31.672243 10.357455 179.886817 -63.926862 179.884474 7.951038 -5.910464 -0.481451 -0.101624 0.947430 -0.000000 0.000000 0.000000 0.000000 0.000000 0.000000 0.000000 -1.546009 -4.782616 -2.499006 60.079138 40.805188 6.111348 -179.605444 82.534141 179.828838 -15.609697 15.917599 -2.337075 0.153139 -0.833541 -0.000000 0.000000 0.000000 0.000000 0.000000 0.000000 0.000000 
7.768004 19.852786 1.585357 24.247765 -86.070749 1.087499 -11.421076 2.121766 2.533170 -5.141664 -3.157991 -23.500714 0.471070 0.782953 27.735999 2.164816 8.750829 34.818550 5.011400 -0.000000 -61.406500 10.598201 -1.818993 -1.341134 6.636903 -11.524663 -24.505518 0.600593 -2.051768 30.397197 -1.424232 -7.180359 21.964044 -3.547400 0.000000 -76.674900 0.327095 -0.635603 -0.787725 -0.102029 -0.642898 -3.106236 -3.169024 -0.564029 -1.530623 2.318093 -5.150388 5.187784 -2.908945 -0.361754 3.379309 0.000000 0.000000 0.000000 14.317141 -0.297336 -4.288537 -75.866470 -31.262655 9.059361 179.793437 -59.812369 179.875058 8.231439 -6.551958 -0.550158 -0.114272 1.000892 -0.000000 0.000000 0.000000 0.000000 0.000000 0.000000 0.000000 -2.198439 -5.123495 -2.713905 59.340665 41.148138 5.186428 -179.484027 79.711756 179.811538 -16.799531 16.698538 -2.645525 0.178135 -0.875720 -0.000000 0.000000 0.000000 0.000000 0.000000 0.000000 0.000000 
7.588070 19.984835 1.576893 23.789314 -86.227829 1.687339 -11.408798 2.024230 2.446637 -5.225984 -3.049352 -24.264571 0.433824 0.816783 27.886548 2.085545 8.554081 33.558435 4.785100 -0.000000 -61.535100 10.517507 -1.733554 -1.333832 6.880204 -11.266318 -25.332312 0.691727 -2.055654 30.314017 -1.435342 -7.605806 20.086644 -3.631300 -0.000000 -76.249100 0.430294 -0.610855 -0.674841 -0.057479 -0.625021 -3.052250 -2.985776 -0.547535 -1.413733 1.966377 -5.151219 5.254744 -2.968488 -0.365938 3.390328 0.000000 0.000000 0.000000 15.034123 0.452730 -4.384719 -75.673739 -30.840047 7.607257 179.668055 -55.865490 179.863132 8.675445 -7.287613 -0.642461 -0.133882 1.057862 -0.000000 0.000000 0.000000 0.000000 0.000000 0.000000 0.000000 -2.836648 -5.503807 -2.939004 58.618083 41.560362 4.261060 -179.349133 77.053479 179.793011 -18.129290 17.608357 -3.018683 0.207117 -0.919529 -0.000000 0.000000 0.000000 0.000000 0.000000 0.000000 0.000000 
7.410425 20.107890 1.568800 23.168944 -86.344946 2.452515 -11.396242 1.923365 2.347945 -5.333437 -2.880129 -25.043885 0.385644 0.846102 27.898345 2.007283 8.288922 32.517351 4.542700 0.000000 -61.754000 10.437826 -1.640164 -1.353146 7.148596 -11.141155 -26.150819 0.791649 -2.047232 30.052500 -1.460233 -8.025248 18.583839 -3.724100 0.000000 -75.876000 0.546002 -0.600875 -0.517125 -0.008327 -0.622515 -2.987582 -2.797830 -0.549126 -1.277768 1.613588 -5.152142 5.284709 -3.029401 -0.369540 3.390097 0.000000 0.000000 0.000000 15.716685 1.222704 -4.436564 -75.458831 -30.414364 6.027747 179.513391 -52.135271 179.848490 9.304573 -8.124800 -0.765646 -0.162417 1.118278 -0.000000 0.000000 0.000000 0.000000 0.000000 0.000000 0.000000 -3.445115 -5.921740 -3.174140 57.909933 42.026172 3.342570 -179.204076 74.558420 179.773771 -19.574916 18.620225 -3.456454 0.239671 -0.964282 -0.000000 0.000000 0.000000 0.000000 0.000000 0.000000 0.000000 
7.234353 20.221995 1.560931 22.418438 -86.421168 3.358087 -11.382782 1.821861 2.243542 -5.466334 -2.665634 -25.829546 0.327572 0.868995 27.737257 1.931940 7.983365 31.717159 4.305100 -0.000000 -61.985300 10.359423 -1.542443 -1.392913 7.445017 -11.131007 -26.964002 0.898937 -2.027105 29.615590 -1.493831 -8.432895 17.438312 -3.831300 -0.000000 -75.557800 0.667476 -0.603994 -0.328889 0.043436 -0.633165 -2.914607 -2.611992 -0.566269 -1.122512 1.274725 -5.156311 5.272583 -3.088595 -0.372304 3.377413 0.000000 0.000000 0.000000 16.342258 2.010626 -4.440262 -75.216353 -29.999693 4.350501 179.334409 -48.673151 179.830971 10.144035 -9.070953 -0.929600 -0.201916 1.182085 -0.000000 0.000000 0.000000 0.000000 0.000000 0.000000 0.000000 -4.009140 -6.371334 -3.417720 57.216164 42.523864 2.435840 -179.052440 72.225416 179.754405 -21.108605 19.700454 -3.955235 0.275189 -1.009133 -0.000000 0.000000 0.000000 0.000000 0.000000 0.000000 0.000000 
